<svg width="1920" height="1080"
  xmlns="http://www.w3.org/2000/svg">
  <defs>
    <linearGradient id="spaceGrad" x1="0%" y1="0%" x2="0%" y2="100%">
      <stop offset="0%" style="stop-color:#000011;stop-opacity:1" />
      <stop offset="100%" style="stop-color:#001133;stop-opacity:1" />
    </linearGradient>
    <filter id="glow" x="-50%" y="-50%" width="200%" height="200%">
      <feGaussianBlur stdDeviation="10" result="blur" />
      <feComposite in="SourceGraphic" in2="blur" operator="over" />
    </filter>
  </defs>

  <!-- Deep space background -->
  <rect width="100%" height="100%" fill="url(#spaceGrad)" />

  <!-- Stars -->
  <g>
    <circle cx="200" cy="300" r="1" fill="white" />
    <circle cx="500" cy="200" r="1.5" fill="white" />
    <circle cx="800" cy="400" r="1" fill="white" />
    <circle cx="1200" cy="300" r="1.2" fill="white" />
    <circle cx="1500" cy="500" r="1" fill="white" />
    <circle cx="1700" cy="200" r="1.3" fill="white" />
    <circle cx="300" cy="700" r="1" fill="white" />
    <circle cx="600" cy="800" r="1.2" fill="white" />
    <circle cx="900" cy="600" r="1" fill="white" />
    <circle cx="1300" cy="700" r="1.5" fill="white" />
    <circle cx="1600" cy="800" r="1" fill="white" />
    <circle cx="1800" cy="600" r="1.2" fill="white" />
    <!-- Add more stars as needed -->
  </g>

  <!-- Earth glow -->
  <ellipse cx="960" cy="900" rx="600" ry="150" fill="rgba(0, 100, 255, 0.1)" filter="url(#glow)" />

  <!-- Earth curve -->
  <path d="M0,1080 Q960,950 1920,1080" stroke="rgba(0, 100, 255, 0.3)" stroke-width="2" fill="none" />

  <!-- Meditation figure silhouette (simplified) -->
  <g transform="translate(960, 400)" opacity="0.7">
    <!-- Head -->
    <circle cx="0" cy="-100" r="50" fill="#003366" />
    <!-- Body -->
    <path d="M0,-50 L0,100" stroke="#003366" stroke-width="40" />
    <!-- Arms -->
    <path d="M0,0 L-100,50" stroke="#003366" stroke-width="30" />
    <path d="M0,0 L100,50" stroke="#003366" stroke-width="30" />
    <!-- Legs -->
    <path d="M0,100 L-70,200" stroke="#003366" stroke-width="30" />
    <path d="M0,100 L70,200" stroke="#003366" stroke-width="30" />
  </g>
</svg>